<?xml version="1.0" encoding="UTF-8" standalone="no"?>
<!DOCTYPE svg PUBLIC "-//W3C//DTD SVG 1.1//EN"
 "http://www.w3.org/Graphics/SVG/1.1/DTD/svg11.dtd">
<!-- Generated by graphviz version 2.43.0 (0)
 -->
<!-- Title: G Pages: 1 -->
<svg width="980pt" height="188pt"
 viewBox="0.00 0.00 979.83 188.00" xmlns="http://www.w3.org/2000/svg" xmlns:xlink="http://www.w3.org/1999/xlink">
<g id="graph0" class="graph" transform="scale(1 1) rotate(0) translate(4 184)">
<title>G</title>
<polygon fill="white" stroke="transparent" points="-4,4 -4,-184 975.83,-184 975.83,4 -4,4"/>
<!-- n7 -->
<g id="node1" class="node">
<title>n7</title>
<ellipse fill="none" stroke="red" cx="142.99" cy="-162" rx="41.69" ry="18"/>
<text text-anchor="middle" x="142.99" y="-158.3" font-family="Times,serif" font-size="14.00">.config</text>
</g>
<!-- n6 -->
<g id="node4" class="node">
<title>n6</title>
<ellipse fill="none" stroke="green" cx="142.99" cy="-90" rx="142.97" ry="18"/>
<text text-anchor="middle" x="142.99" y="-86.3" font-family="Times,serif" font-size="14.00">include/config/auto.conf.cmd</text>
</g>
<!-- n7&#45;&gt;n6 -->
<g id="edge5" class="edge">
<title>n7&#45;&gt;n6</title>
<path fill="none" stroke="black" d="M142.99,-143.7C142.99,-135.98 142.99,-126.71 142.99,-118.11"/>
<polygon fill="black" stroke="black" points="146.49,-118.1 142.99,-108.1 139.49,-118.1 146.49,-118.1"/>
</g>
<!-- n2 -->
<g id="node2" class="node">
<title>n2</title>
<ellipse fill="none" stroke="green" cx="466.99" cy="-18" rx="30.59" ry="18"/>
<text text-anchor="middle" x="466.99" y="-14.3" font-family="Times,serif" font-size="14.00">__all</text>
</g>
<!-- n3 -->
<g id="node3" class="node">
<title>n3</title>
<ellipse fill="none" stroke="red" cx="367.99" cy="-90" rx="63.89" ry="18"/>
<text text-anchor="middle" x="367.99" y="-86.3" font-family="Times,serif" font-size="14.00">__sub&#45;make</text>
</g>
<!-- n3&#45;&gt;n2 -->
<g id="edge1" class="edge">
<title>n3&#45;&gt;n2</title>
<path fill="none" stroke="black" d="M390.45,-73.12C405.18,-62.7 424.52,-49.03 440.07,-38.03"/>
<polygon fill="black" stroke="black" points="442.12,-40.87 448.27,-32.24 438.08,-35.15 442.12,-40.87"/>
</g>
<!-- n6&#45;&gt;n2 -->
<g id="edge2" class="edge">
<title>n6&#45;&gt;n2</title>
<path fill="none" stroke="black" d="M211.7,-74.15C277.7,-59.9 375.04,-38.86 428.44,-27.33"/>
<polygon fill="black" stroke="black" points="429.47,-30.69 438.51,-25.15 428,-23.84 429.47,-30.69"/>
</g>
<!-- n4 -->
<g id="node5" class="node">
<title>n4</title>
<ellipse fill="none" stroke="green" cx="565.99" cy="-90" rx="116.18" ry="18"/>
<text text-anchor="middle" x="565.99" y="-86.3" font-family="Times,serif" font-size="14.00">scripts/Makefile.debug</text>
</g>
<!-- n4&#45;&gt;n2 -->
<g id="edge3" class="edge">
<title>n4&#45;&gt;n2</title>
<path fill="none" stroke="black" d="M542.27,-72.23C527.83,-62.02 509.33,-48.94 494.28,-38.3"/>
<polygon fill="black" stroke="black" points="496.06,-35.27 485.88,-32.36 492.02,-40.99 496.06,-35.27"/>
</g>
<!-- n5 -->
<g id="node6" class="node">
<title>n5</title>
<ellipse fill="none" stroke="green" cx="835.99" cy="-90" rx="135.68" ry="18"/>
<text text-anchor="middle" x="835.99" y="-86.3" font-family="Times,serif" font-size="14.00">scripts/Makefile.extrawarn</text>
</g>
<!-- n5&#45;&gt;n2 -->
<g id="edge4" class="edge">
<title>n5&#45;&gt;n2</title>
<path fill="none" stroke="black" d="M761.76,-74.92C684.37,-60.24 566.09,-37.8 505.58,-26.32"/>
<polygon fill="black" stroke="black" points="506.15,-22.87 495.68,-24.44 504.85,-29.74 506.15,-22.87"/>
</g>
</g>
</svg>
